<svg xmlns="http://www.w3.org/2000/svg" width="731.987" height="722.646" viewBox="0 0 731.987 722.646">
  <g id="_3162833" data-name="3162833" transform="translate(-22.327 -31.134)">
    <g id="Floor" transform="translate(22.327 351.719)">
      <ellipse id="Floor-2" data-name="Floor" cx="365.696" cy="201.03" rx="365.696" ry="201.03" fill="#f5f5f5"/>
    </g>
    <g id="Shadow" transform="translate(72.552 450.651)">
      <path id="Shadow-2" data-name="Shadow" d="M161.67,380.127,312,293.337a7.262,7.262,0,0,1,6.572,0l109.634,63.3c1.815,1.048,1.815,2.746,0,3.794L277.876,447.218a7.265,7.265,0,0,1-6.573,0l-109.632-63.3C159.854,382.873,159.854,381.173,161.67,380.127Z" transform="translate(10.896 -292.551)" fill="#e0e0e0"/>
      <ellipse id="Shadow-3" data-name="Shadow" cx="100.651" cy="58.111" rx="100.651" ry="58.111" transform="translate(444.195 43.478)" fill="#e0e0e0"/>
      <path id="Shadow-4" data-name="Shadow" d="M183.95,460.906A10.039,10.039,0,0,1,179,459.675L56.615,389a5.209,5.209,0,0,1,0-9.427l98.975-57.169a10.588,10.588,0,0,1,9.906,0l122.381,70.676a5.206,5.206,0,0,1,0,9.423L188.9,459.675A10.053,10.053,0,0,1,183.95,460.906Z" transform="translate(-53.624 -275.24)" fill="#e0e0e0"/>
    </g>
    <g id="Plants" transform="translate(34.64 434.638)">
      <g id="Plants-2" data-name="Plants">
        <g id="Grupo_30" data-name="Grupo 30" transform="translate(4.42)">
          <g id="Grupo_28" data-name="Grupo 28">
            <path id="Caminho_14" data-name="Caminho 14" d="M95.546,364.889s1.775-23.451-6.239-43.446-21.579-34.108-36-38.062S24.5,290.635,38.395,302.875,78.314,329.868,84.511,366.9Z" transform="translate(-32.754 -282.573)" fill="#37474f"/>
          </g>
          <g id="Grupo_29" data-name="Grupo 29" transform="translate(11.954 6.378)">
            <path id="Caminho_15" data-name="Caminho 15" d="M87.888,355.7a.8.8,0,0,0,.164-.016.8.8,0,0,0,.624-.937c-8.18-40.991-34.551-62.493-47.355-68.136a.8.8,0,1,0-.642,1.457c12.541,5.527,38.385,26.643,46.438,66.992A.8.8,0,0,0,87.888,355.7Z" transform="translate(-40.203 -286.547)" fill="#fff"/>
          </g>
        </g>
        <g id="Grupo_35" data-name="Grupo 35" transform="translate(0 54.639)">
          <g id="Grupo_32" data-name="Grupo 32">
            <g id="Grupo_31" data-name="Grupo 31">
              <path id="Caminho_16" data-name="Caminho 16" d="M30.143,327.128c.621,2.67,3.064,4.466,5.374,5.952s4.814,3.084,5.721,5.671c1.825,5.22-3.908,10.98-1.862,16.117a8.571,8.571,0,0,0,5.114,4.431,57.5,57.5,0,0,0,5.554,1.586,23.051,23.051,0,0,0,2.725.3c2.666.119,5.5.534,7.623,2.316,3.336,2.813,3.583,7.753,5.158,11.824a18.068,18.068,0,0,0,11.079,10.3C80.762,387,87.3,387.264,88.749,385.6c1.106-1.266-.557-6.037-.294-7.7a68.582,68.582,0,0,0,.8-12.886,24.273,24.273,0,0,1,.286-5.87q.643-3.245,1.242-6.5c.631-3.5,1.781-7.244.932-10.818-.947-3.932-5-4.789-5.861-8.634-.345-1.533-.384-3.112-.706-4.657a12.735,12.735,0,0,0-9.234-9.473c-7.035-1.719-14.51,2.816-21.507.937a54.473,54.473,0,0,1-5.243-2.075c-5.549-2.178-12.512-1.809-16.678,2.443C30.748,322.146,29.58,324.7,30.143,327.128Z" transform="translate(-30 -316.621)" fill="#455a64"/>
            </g>
          </g>
          <g id="Grupo_33" data-name="Grupo 33" transform="translate(7.429 4.615)">
            <path id="Caminho_17" data-name="Caminho 17" d="M84.475,372.683c.016,0,.034,0,.05,0a.618.618,0,0,0,.571-.66c-2.783-38.707-40.572-51.443-49.777-52.521a.617.617,0,0,0-.144,1.226c9,1.054,45.969,13.514,48.691,51.385A.616.616,0,0,0,84.475,372.683Z" transform="translate(-34.629 -319.497)" fill="#fff"/>
          </g>
          <g id="Grupo_34" data-name="Grupo 34" transform="translate(17.108 25.186)">
            <path id="Caminho_18" data-name="Caminho 18" d="M41.274,338.031a.609.609,0,0,0,.353-.108c.116-.08,11.877-7.947,27.83-2.4a.617.617,0,1,0,.406-1.165c-16.569-5.763-28.812,2.458-28.936,2.544a.617.617,0,0,0,.347,1.125Z" transform="translate(-40.66 -332.315)" fill="#fff"/>
          </g>
        </g>
      </g>
    </g>
    <g id="Window" transform="translate(100.227 31.134)">
      <g id="Window-2" data-name="Window">
        <g id="Window-3" data-name="Window">
          <path id="Caminho_19" data-name="Caminho 19" d="M75,230.043l6.635,3.831,165.868-95.764-6.633-3.833Z" transform="translate(-68.369 31.244)" fill="#f5f5f5"/>
          <path id="Caminho_20" data-name="Caminho 20" d="M130.818,69.582V223.609l6.638-3.829V65.751Z" transform="translate(-34.614 -10.198)" fill="#ebebeb"/>
          <path id="Caminho_21" data-name="Caminho 21" d="M128.752,66.94l3.316,1.924V222.891l-3.316-1.924Z" transform="translate(-35.864 -9.48)" fill="#e0e0e0"/>
          <path id="Caminho_22" data-name="Caminho 22" d="M132.068,70.308l6.637-3.831-3.317-1.924-6.636,3.831Z" transform="translate(-35.864 -10.923)" fill="#fafafa"/>
          <path id="Caminho_23" data-name="Caminho 23" d="M254.146,33.521,75,136.948l0,169.353,179.14-103.427Zm-6.637,165.523L81.64,294.808l0-154.03L247.508,45.014Z" transform="translate(-68.37 -29.691)" fill="#ebebeb"/>
          <path id="Caminho_24" data-name="Caminho 24" d="M185,194.713l-6.633-3.833,0-146.367L185,40.683Z" transform="translate(-5.86 -25.359)" fill="#e0e0e0"/>
          <path id="Caminho_25" data-name="Caminho 25" d="M256.646,34.965l-6.635-3.831L70.87,134.561l6.634,3.83Z" transform="translate(-70.87 -31.134)" fill="#f5f5f5"/>
          <path id="Caminho_26" data-name="Caminho 26" d="M70.87,95.583l6.634,3.83,0,169.352-6.635-3.83Z" transform="translate(-70.87 7.844)" fill="#e0e0e0"/>
          <path id="Caminho_27" data-name="Caminho 27" d="M130.82,71.96l6.618-3.821v3.831l-6.619,3.821Z" transform="translate(-34.614 -8.755)" opacity="0.1"/>
          <path id="Caminho_28" data-name="Caminho 28" d="M132.068,74.351l-3.316-1.916,3.317-1.915Z" transform="translate(-35.864 -7.315)" opacity="0.1"/>
        </g>
      </g>
    </g>
    <g id="Character" transform="translate(474.323 71.913)">
      <g id="Character-2" data-name="Character">
        <g id="Grupo_36" data-name="Grupo 36" transform="translate(0 85.905)">
          <path id="Caminho_29" data-name="Caminho 29" d="M448.132,110.967c-11.631,3.863-14.475,4.716-22.533,17.247-7.732,12.028-15.7,34.26-22.621,52.1-12.792-3.635-39.933-9.956-48.893-15.162s-8.067-8.8-11.7-12.142c-4.213-3.879-8.629-13.154-12.066-8.064-2.32,3.437,2.479,5.755,2.179,10.1s-13.474-5.957-18.989-9.815c-3.66-2.561-12.143,5.463-8.74,14.169,3.015,7.714,7.836,12.6,16.484,16.255,9.141,3.868,13.909,5.8,25.381,10.951,11.986,5.382,61.37,27.248,66.25,24.2,11.134-5.5,21.318-39.913,28.053-54.786S443.244,125.83,448.132,110.967Z" transform="translate(-303.983 -109.537)" fill="#ffa8a7"/>
          <path id="Caminho_30" data-name="Caminho 30" d="M435.611,110.076c-4.981,6.565-2.929,3.914-4.468,14.034-1.242,8.167-18.394,86.714-33.922,89.972-6.815,1.43-55.97-21.053-67.89-27.623,4.023-5.946,8.051-13.28,9.425-20.771,14.284,5.585,38.9,11.092,47.757,13.838,4.092-11.416,9.1-23.136,13.792-34.652C409.243,122.948,414.986,113.043,435.611,110.076Z" transform="translate(-288.653 -110.076)" fill="#27debf"/>
          <path id="Caminho_31" data-name="Caminho 31" d="M435.611,110.076c-4.981,6.565-2.929,3.914-4.468,14.034-1.242,8.167-18.394,86.714-33.922,89.972-6.815,1.43-55.97-21.053-67.89-27.623,4.023-5.946,8.051-13.28,9.425-20.771,14.284,5.585,38.9,11.092,47.757,13.838,4.092-11.416,9.1-23.136,13.792-34.652C409.243,122.948,414.986,113.043,435.611,110.076Z" transform="translate(-288.653 -110.076)" opacity="0.2"/>
        </g>
        <g id="Grupo_37" data-name="Grupo 37" transform="translate(71.624 215.013)">
          <rect id="Retângulo_130" data-name="Retângulo 130" width="19.151" height="32.785" transform="translate(122.861 226.848)" fill="#ffa8a7"/>
          <path id="Caminho_32" data-name="Caminho 32" d="M401.026,353.908l-20.9.719-1.047-37.882,23.675-.775Z" transform="translate(-330.189 -114.663)" fill="#ffa8a7"/>
          <path id="Caminho_33" data-name="Caminho 33" d="M470.811,194.3c0,17.431,1.2,118.784,1.2,118.784.424,5.016,5.252,13.933,5.628,32,.544,26.2-3.484,87.915-3.484,87.915s-8.862,5.179-20.325.4c0,0-14.337-87.292-17.608-113.227-2.855-22.632-11.009-81.852-11.009-81.852l-12.331,76.924a128.46,128.46,0,0,1,1.021,27.835c-.854,12-9.934,71.621-9.934,71.621s-11.882,4.439-24.365.221c0,0-1.9-92.907-2.114-103.914-.239-12.548,5.233-120.482,5.233-120.482Z" transform="translate(-331.154 -190.528)" fill="#37474f"/>
          <path id="Caminho_34" data-name="Caminho 34" d="M434.452,347.465v-2.736c-1.025-.022-1.663,1-2.056,3.463-.281,1.762-.539,3.1-1.12,5.416a64.18,64.18,0,0,1-3.344,9.8c-2.707,6.671-4.981,9.155-11.18,16.955-1.47,1.85-4.79,4.789-5.947,6.849s-1.565,7.794.4,9.105c7.231,4.821,18.211,4.956,25.978,2.678a15.68,15.68,0,0,0,11.278-12.671c.284-1.765.18-3.571.382-5.347.462-4.052,2.5-7.754,4.8-11.124a33.717,33.717,0,0,0,3.68-6.055c1.608-3.937.318-8.364-.709-12.285-.887-3.386-1.85-7.109-3.006-6.792,0,.412,0,2.088,0,2.088-1.39,1.541-5.236,3.07-9.576,3.237C441.226,350.157,434.429,349.6,434.452,347.465Z" transform="translate(-311.591 -97.284)" fill="#27debf"/>
          <path id="Caminho_35" data-name="Caminho 35" d="M434.452,347.465v-2.736c-1.025-.022-1.663,1-2.056,3.463-.281,1.762-.539,3.1-1.12,5.416a64.18,64.18,0,0,1-3.344,9.8c-2.707,6.671-4.981,9.155-11.18,16.955-1.47,1.85-4.79,4.789-5.947,6.849s-1.565,7.794.4,9.105c7.231,4.821,18.211,4.956,25.978,2.678a15.68,15.68,0,0,0,11.278-12.671c.284-1.765.18-3.571.382-5.347.462-4.052,2.5-7.754,4.8-11.124a33.717,33.717,0,0,0,3.68-6.055c1.608-3.937.318-8.364-.709-12.285-.887-3.386-1.85-7.109-3.006-6.792,0,.412,0,2.088,0,2.088-1.39,1.541-5.236,3.07-9.576,3.237C441.226,350.157,434.429,349.6,434.452,347.465Z" transform="translate(-311.591 -97.284)" opacity="0.6"/>
          <path id="Caminho_36" data-name="Caminho 36" d="M398.333,336.559c-1.085.037-1.969,1.57-4.363,4.161a45.7,45.7,0,0,1-12.3,8.85c-7.828,3.919-23.051,9.95-29.94,13.052-4.3,1.939-4.1,7.138.347,10.1s15.189,5.09,28.089,2.2c7.024-1.571,16.171-8.061,21.96-7.711s16.622.268,20.9-2.678,2.563-9.236,1.354-14.64c-1.318-5.9-2.643-15.1-4.6-14.7l-.1,2.2c-2.515,3.807-15.709,5.19-21.233,2.388Z" transform="translate(-348.615 -103.042)" fill="#27debf"/>
          <path id="Caminho_37" data-name="Caminho 37" d="M398.333,336.559c-1.085.037-1.969,1.57-4.363,4.161a45.7,45.7,0,0,1-12.3,8.85c-7.828,3.919-23.051,9.95-29.94,13.052-4.3,1.939-4.1,7.138.347,10.1s15.189,5.09,28.089,2.2c7.024-1.571,16.171-8.061,21.96-7.711s16.622.268,20.9-2.678,2.563-9.236,1.354-14.64c-1.318-5.9-2.643-15.1-4.6-14.7l-.1,2.2c-2.515,3.807-15.709,5.19-21.233,2.388Z" transform="translate(-348.615 -103.042)" opacity="0.6"/>
          <path id="Caminho_38" data-name="Caminho 38" d="M417.446,226.257s-16.285-5.312-27.114-15.777c0,0,4.9,9.184,19.492,17.731l-3.5,67.42Z" transform="translate(-323.385 -178.461)" fill="#263238"/>
        </g>
        <g id="Grupo_41" data-name="Grupo 41" transform="translate(121.593 84.272)">
          <path id="Caminho_39" data-name="Caminho 39" d="M437.79,109.84a177.046,177.046,0,0,1,19.835,5.74c4.952,1.765,7.611,6.462,8.666,11.1,3.376,14.86,3.961,46.032,3.961,46.032l.193,72.6c-12.572,9.157-64.236,13.808-90.693-5.514,0,0,3.235-86.459,3.235-99.917s7.478-29.626,28.124-30.825Z" transform="translate(-379.752 -109.058)" fill="#27debf"/>
          <path id="Caminho_40" data-name="Caminho 40" d="M437.79,109.84a177.046,177.046,0,0,1,19.835,5.74c4.952,1.765,7.611,6.462,8.666,11.1,3.376,14.86,3.961,46.032,3.961,46.032l.193,72.6c-12.572,9.157-64.236,13.808-90.693-5.514,0,0,3.235-86.459,3.235-99.917s7.478-29.626,28.124-30.825Z" transform="translate(-379.752 -109.058)" opacity="0.4"/>
          <g id="Grupo_38" data-name="Grupo 38" transform="translate(60.951 82.46)">
            <path id="Caminho_41" data-name="Caminho 41" d="M515.143,163.632a1.438,1.438,0,0,0-.552-1.274.7.7,0,0,0-.143-.082l-2.911-1.7,0,0-.006,0h0a1.417,1.417,0,0,0-1.415.144L451.9,194.282l-1.695-6.836a1.888,1.888,0,0,0-.841-1.114l.013,0-3.03-1.76,0,.013a1.794,1.794,0,0,0-1.844.048l-24.763,14.294a4.446,4.446,0,0,0-2.012,3.486l0,82.579a1.442,1.442,0,0,0,.541,1.276h0l3.118,1.807h0a1.443,1.443,0,0,0,1.37-.167l90.4-52.194a4.45,4.45,0,0,0,2.014-3.486Z" transform="translate(-417.732 -160.442)" fill="#27debf"/>
            <path id="Caminho_42" data-name="Caminho 42" d="M449.106,177.291a1.8,1.8,0,0,0-1.8.085l-24.762,14.291a4.286,4.286,0,0,0-1.423,1.507l-3.015-1.757a4.057,4.057,0,0,1,1.422-1.507l24.762-14.291a1.794,1.794,0,0,1,1.842-.047v-.01Z" transform="translate(-417.51 -151.432)" fill="#fff" opacity="0.5"/>
            <path id="Caminho_43" data-name="Caminho 43" d="M501.57,162.276a1.5,1.5,0,0,0-1.321.2l-58.263,33.614a1.76,1.76,0,0,1-2.688-1.07l-.271-.733,58.207-33.569a1.8,1.8,0,0,1,.892-.27,1.049,1.049,0,0,1,.52.13h.01Z" transform="translate(-404.855 -160.441)" fill="#fff" opacity="0.5"/>
            <path id="Caminho_44" data-name="Caminho 44" d="M514.006,162.973l.035,68.59a4.436,4.436,0,0,1-2.016,3.489l-90.632,52.325a1.188,1.188,0,0,1-1.781-1.029V203.5a4.076,4.076,0,0,1,.587-1.979,4.259,4.259,0,0,1,1.422-1.5l24.763-14.3a1.813,1.813,0,0,1,1.807-.082l.053.03h-.016a1.873,1.873,0,0,1,.841,1.115l1.7,6.832.268.737a1.759,1.759,0,0,0,2.685,1.07l58.268-33.615a1.489,1.489,0,0,1,1.318-.193l.082.043.045.022.022.016A1.439,1.439,0,0,1,514.006,162.973Z" transform="translate(-416.596 -159.779)" fill="#27debf"/>
            <path id="Caminho_45" data-name="Caminho 45" d="M467.342,174.99l0-10.824,6.435-3.723,0,10.832Z" transform="translate(-387.73 -160.441)" fill="#455a64"/>
            <path id="Caminho_46" data-name="Caminho 46" d="M421.482,273.033a.482.482,0,0,1-.088-.03l-3.118-1.807a1.463,1.463,0,0,1-.542-1.279V187.338a4.094,4.094,0,0,1,.6-1.979l3.012,1.756v.008a4.077,4.077,0,0,0-.587,1.979v82.837A1.176,1.176,0,0,0,421.482,273.033Z" transform="translate(-417.733 -145.373)" opacity="0.2"/>
          </g>
          <g id="Grupo_40" data-name="Grupo 40" transform="translate(75.459 6.519)">
            <g id="Grupo_39" data-name="Grupo 39" transform="translate(2.76 2.585)">
              <path id="Caminho_47" data-name="Caminho 47" d="M476.442,203.555c-16.677-68.168-25.258-89.086-45.515-88.821-5.914,7.069.321,29.064,4.232,39.757,0,0,17.922,43.775,21.247,59.4,2.922,13.73,6.23,31.006,6.021,42.809a8.559,8.559,0,0,1-2.317,5.615c-3.8,4.124-3.821,7.446-6.286,12.009-1.931,3.571-4.042,4.906-3.439,5.71.773,1.033,3.216,2.38,6.255.462,1.529-.966,2.523-2.1,4.741-4.548a52.791,52.791,0,0,1-3.7,15.664l-4.237,2.447s1.3,4.405,11.535,1.467c11.562-3.317,15.7-4.749,16.926-24.357.351-5.649.884-14.56.215-21.7C480.382,230.874,479.127,214.527,476.442,203.555Z" transform="translate(-428.494 -114.731)" fill="#ffa8a7"/>
            </g>
            <path id="Caminho_48" data-name="Caminho 48" d="M429.188,113.123s15.452-.342,20.347,7.151c5.654,8.658,13,22.069,22.507,55.89s12.415,58.5,12.9,77.538c0,0-11.914,5.562-22.905-.785,0,0-4.869-29.42-9.184-45.073s-18.163-49.568-18.163-49.568S421.482,136.667,429.188,113.123Z" transform="translate(-426.774 -113.121)" fill="#27debf"/>
            <path id="Caminho_49" data-name="Caminho 49" d="M429.188,113.123s15.452-.342,20.347,7.151c5.654,8.658,13,22.069,22.507,55.89s12.415,58.5,12.9,77.538c0,0-11.914,5.562-22.905-.785,0,0-4.869-29.42-9.184-45.073s-18.163-49.568-18.163-49.568S421.482,136.667,429.188,113.123Z" transform="translate(-426.774 -113.121)" opacity="0.2"/>
          </g>
        </g>
        <g id="Grupo_48" data-name="Grupo 48" transform="translate(126.933)">
          <g id="Grupo_42" data-name="Grupo 42">
            <path id="Caminho_50" data-name="Caminho 50" d="M431.536,82.93A24.228,24.228,0,1,1,407.309,58.7,24.227,24.227,0,0,1,431.536,82.93Z" transform="translate(-383.08 -55.241)" fill="#263238"/>
            <path id="Caminho_51" data-name="Caminho 51" d="M428.167,84.533s-3.925,18.447-5.5,21.477a8.35,8.35,0,0,1-4.827,3.893l.274-12.976Z" transform="translate(-362.058 -39.619)" fill="#263238"/>
            <path id="Caminho_52" data-name="Caminho 52" d="M422.135,68.092a9.093,9.093,0,0,1,7.525,2.646c3.232,3.3,1.427,13.649-2.6,23.778l-7.395.851Z" transform="translate(-360.953 -49.601)" fill="#263238"/>
            <path id="Caminho_53" data-name="Caminho 53" d="M438.153,99.635c1.483.886,3.6-1.963,5.427-3.876s7.8-4.529,10.778,1.746c3.033,6.4-2.63,14.846-7.329,16.321-8.1,2.544-9.316-2.653-9.316-2.653l-.6,30.11h0c-5.6,7.181-18.182,15.619-24.956,14.414-5.406-.961-6.586-10.094-1.417-16.08l.022-8.892s-7.339,1.114-10.919.56c-5.957-.921-9.7-5.622-11.511-12.068-2.9-10.357-4-18.718-1.542-39.088,2.7-22.324,28.665-22.557,42.686-13.731S438.153,99.635,438.153,99.635Z" transform="translate(-381.657 -53.865)" fill="#ffa8a7"/>
            <path id="Caminho_54" data-name="Caminho 54" d="M388.249,72.853c4.9,3.977,8.085,6.1,17.55,6.438A42.36,42.36,0,0,0,424.584,75.6c.5,2.017.981,4.286,2.794,6.133,3.372,3.441,5.312,3.511,6.637,4.357.51,4.015.493,9.173.738,13.212.083,1.364.079,8.467,3.314,6.438,1.058-.663,2.048-2.274,2.82-3.163a47.131,47.131,0,0,1,3.721-4.136c2.558-2.327-.741-23.4-.741-23.4a10.225,10.225,0,0,0-1.76-11.378c-3.5-3.856-8.391-8.565-24.293-6.686-11.333,1.34-23.669,4.875-33.636-.021C382.8,62.662,384.742,70,388.249,72.853Z" transform="translate(-382.685 -56.545)" fill="#263238"/>
            <path id="Caminho_55" data-name="Caminho 55" d="M421.406,71.97l8.966-4.814a4.942,4.942,0,0,0-6.787-2.245A5.349,5.349,0,0,0,421.406,71.97Z" transform="translate(-360.239 -51.84)" fill="#263238"/>
            <path id="Caminho_56" data-name="Caminho 56" d="M401.218,108.777s13.3-2.68,17.945-5.151c3.112-1.653,5.674-4.519,6.427-6.357a20.958,20.958,0,0,1-3.651,7.5c-3.4,4.346-20.721,7.546-20.721,7.546Z" transform="translate(-372.111 -31.916)" fill="#f28f8f"/>
          </g>
          <g id="Grupo_43" data-name="Grupo 43" transform="translate(6.26 28.217)">
            <path id="Caminho_57" data-name="Caminho 57" d="M402.059,83.247a2.855,2.855,0,1,0,2.853-2.972A2.9,2.9,0,0,0,402.059,83.247Z" transform="translate(-377.862 -70.41)" fill="#263238"/>
            <path id="Caminho_58" data-name="Caminho 58" d="M403.837,76.8l5.9,3.258a3.538,3.538,0,0,0-1.377-4.7A3.287,3.287,0,0,0,403.837,76.8Z" transform="translate(-376.787 -73.628)" fill="#263238"/>
            <path id="Caminho_59" data-name="Caminho 59" d="M404.4,94.217l-6.6,2.476a3.462,3.462,0,0,0,4.481,2.186A3.689,3.689,0,0,0,404.4,94.217Z" transform="translate(-380.434 -61.978)" fill="#f28f8f"/>
            <path id="Caminho_60" data-name="Caminho 60" d="M387.636,79.677l5.382-4.145a3.262,3.262,0,0,0-4.68-.719A3.57,3.57,0,0,0,387.636,79.677Z" transform="translate(-386.981 -74.128)" fill="#263238"/>
            <path id="Caminho_61" data-name="Caminho 61" d="M388.146,82.875A2.761,2.761,0,1,0,390.9,80,2.806,2.806,0,0,0,388.146,82.875Z" transform="translate(-386.276 -70.576)" fill="#263238"/>
            <path id="Caminho_62" data-name="Caminho 62" d="M401.127,80.378l-.948,17.374-9.071-3.092Z" transform="translate(-384.486 -70.348)" fill="#f28f8f"/>
          </g>
          <g id="Grupo_47" data-name="Grupo 47" transform="translate(16.101 75.664)">
            <path id="Caminho_63" data-name="Caminho 63" d="M395.314,121.422c1.693,4.02,4.814,5.66,10.474,6.3s12.54-2.17,15.661-5.45l-7.043-7.008-8.926,6.726-.761-7.493Z" transform="translate(-391.782 -97.163)" fill="#263238"/>
            <g id="Grupo_44" data-name="Grupo 44" transform="translate(0 22.064)">
              <path id="Caminho_64" data-name="Caminho 64" d="M398.463,117.443a18.75,18.75,0,0,0-.931,7.536,12.9,12.9,0,0,0,2.515,6.278s2.248,1.786,6.085.661c3-2.767,6.021-7.2,5.792-12.6l-7.729.881Z" transform="translate(-390.497 -117.443)" fill="#37474f"/>
              <path id="Caminho_65" data-name="Caminho 65" d="M402.663,126.051s-9.162,50.565-9.532,54.646,5.264,18.58,8.756,18.7,10.351-13,10.454-16.712-3.591-55.976-3.591-55.976Z" transform="translate(-393.113 -112.237)" fill="#37474f"/>
              <path id="Caminho_66" data-name="Caminho 66" d="M405.2,126.712a6.12,6.12,0,0,1-6.085-.661l-.144.8A6.973,6.973,0,0,0,405.3,128.1Z" transform="translate(-389.569 -112.237)" fill="#263238"/>
            </g>
            <g id="Grupo_46" data-name="Grupo 46" transform="translate(1.791)">
              <g id="Grupo_45" data-name="Grupo 45">
                <path id="Caminho_67" data-name="Caminho 67" d="M401.649,128.517l25.789-19.665.1-5.158s6.039,1.6,7.387,12.193c-3.677,8.544-10.341,15.834-20.129,21.414l-5.421-9.666Z" transform="translate(-389.742 -103.694)" fill="#27debf"/>
                <path id="Caminho_68" data-name="Caminho 68" d="M401.649,128.517l25.789-19.665.1-5.158s6.039,1.6,7.387,12.193c-3.677,8.544-10.341,15.834-20.129,21.414l-5.421-9.666Z" transform="translate(-389.742 -103.694)" opacity="0.2"/>
                <path id="Caminho_69" data-name="Caminho 69" d="M405.445,105.239s-6.061,2.815-8.65,7.083-2.566,18.11-2.566,18.11l6.175-5.609,5.732,2.759c-.55-5.427-.714-14.733-.714-14.733Z" transform="translate(-394.229 -102.76)" fill="#27debf"/>
                <path id="Caminho_70" data-name="Caminho 70" d="M405.445,105.239s-6.061,2.815-8.65,7.083-2.566,18.11-2.566,18.11l6.175-5.609,5.732,2.759c-.55-5.427-.714-14.733-.714-14.733Z" transform="translate(-394.229 -102.76)" opacity="0.2"/>
              </g>
            </g>
          </g>
        </g>
      </g>
    </g>
    <g id="Cabinet" transform="translate(263.083 161.996)">
      <g id="Cabinet-2" data-name="Cabinet">
        <g id="Cabinet-3" data-name="Cabinet">
          <g id="Grupo_49" data-name="Grupo 49">
            <path id="Caminho_71" data-name="Caminho 71" d="M267.308,513.9l-94.955-54.822v-297.6L267.307,216.3Z" transform="translate(-172.351 -83.164)" fill="#263238"/>
            <path id="Caminho_72" data-name="Caminho 72" d="M231.522,225.158l135.649-78.317,0,297.6L231.523,522.758Z" transform="translate(-136.567 -92.019)" fill="#37474f"/>
            <path id="Caminho_73" data-name="Caminho 73" d="M402.956,167.5,267.307,245.818,172.351,191,308,112.679Z" transform="translate(-172.351 -112.679)" fill="#455a64"/>
          </g>
          <g id="Grupo_54" data-name="Grupo 54" transform="translate(108.517 263.364)">
            <g id="Grupo_50" data-name="Grupo 50">
              <path id="Caminho_74" data-name="Caminho 74" d="M239.976,339.445,348.5,276.791l0,75.423,2.5,1.442L242.468,416.309l-2.5-1.442Z" transform="translate(-239.972 -276.791)" fill="#263238"/>
            </g>
            <g id="Grupo_51" data-name="Grupo 51" transform="translate(2.496 1.443)">
              <path id="Caminho_75" data-name="Caminho 75" d="M241.531,340.344l108.52-62.654,0,75.423L241.528,415.765Z" transform="translate(-241.528 -277.69)" fill="#455a64"/>
            </g>
            <g id="Grupo_52" data-name="Grupo 52" transform="translate(2.496 1.443)" opacity="0.05">
              <path id="Caminho_76" data-name="Caminho 76" d="M241.531,340.344l108.52-62.654,0,75.423L241.528,415.765Z" transform="translate(-241.528 -277.69)"/>
            </g>
            <g id="Grupo_53" data-name="Grupo 53" transform="translate(40.697 40.931)">
              <path id="Caminho_77" data-name="Caminho 77" d="M269.671,313.686l18.453-10.656c2.4-1.383,4.338-.753,4.338,1.411s-1.942,5.037-4.338,6.421l-18.457,10.654c-2.4,1.383-4.338.753-4.336-1.411S267.275,315.068,269.671,313.686Z" transform="translate(-265.332 -302.297)" fill="#263238"/>
            </g>
          </g>
          <g id="Grupo_59" data-name="Grupo 59" transform="translate(108.517 172.293)">
            <g id="Grupo_55" data-name="Grupo 55">
              <path id="Caminho_78" data-name="Caminho 78" d="M239.976,282.7,348.5,220.042l0,75.423,2.5,1.442L242.468,359.559l-2.5-1.442Z" transform="translate(-239.972 -220.042)" fill="#263238"/>
            </g>
            <g id="Grupo_56" data-name="Grupo 56" transform="translate(2.496 1.443)">
              <path id="Caminho_79" data-name="Caminho 79" d="M241.531,283.594l108.52-62.654,0,75.423L241.528,359.015Z" transform="translate(-241.528 -220.94)" fill="#455a64"/>
            </g>
            <g id="Grupo_57" data-name="Grupo 57" transform="translate(2.496 1.443)" opacity="0.05">
              <path id="Caminho_80" data-name="Caminho 80" d="M241.531,283.594l108.52-62.654,0,75.423L241.528,359.015Z" transform="translate(-241.528 -220.94)"/>
            </g>
            <g id="Grupo_58" data-name="Grupo 58" transform="translate(40.697 40.931)">
              <path id="Caminho_81" data-name="Caminho 81" d="M269.671,256.936l18.453-10.656c2.4-1.383,4.338-.751,4.338,1.411s-1.942,5.039-4.338,6.422l-18.457,10.654c-2.4,1.383-4.338.751-4.336-1.411S267.275,258.319,269.671,256.936Z" transform="translate(-265.332 -245.547)" fill="#263238"/>
            </g>
          </g>
          <path id="Caminho_82" data-name="Caminho 82" d="M239.972,225.946l108.52-62.654V238.7l-108.52,62.651Z" transform="translate(-131.456 -82.069)" fill="#263238"/>
        </g>
        <g id="Drawer" transform="translate(111.006 88.128)">
          <g id="Grupo_62" data-name="Grupo 62" transform="translate(100.075)">
            <g id="Grupo_60" data-name="Grupo 60" transform="translate(0 2.436)">
              <path id="Caminho_83" data-name="Caminho 83" d="M364.1,203.855l-60.21-34.742,0,66.446L364.095,270.3Z" transform="translate(-303.884 -169.113)" fill="#37474f"/>
            </g>
            <g id="Grupo_61" data-name="Grupo 61" transform="translate(0 2.436)" opacity="0.1">
              <path id="Caminho_84" data-name="Caminho 84" d="M364.1,203.855l-60.21-34.742,0,66.446L364.095,270.3Z" transform="translate(-303.884 -169.113)"/>
            </g>
            <path id="Caminho_85" data-name="Caminho 85" d="M308.1,167.6l-4.212,2.428,60.214,34.75,4.212-2.428Z" transform="translate(-303.884 -167.595)" fill="#455a64"/>
          </g>
          <g id="Grupo_63" data-name="Grupo 63" transform="translate(18.608 3.972)">
            <path id="Caminho_86" data-name="Caminho 86" d="M355.757,173.432a1.508,1.508,0,0,0-.583-1.342.663.663,0,0,0-.151-.087l-3.067-1.791,0,0-.006,0v0a1.5,1.5,0,0,0-1.492.151l-61.33,35.366-1.786-7.2a1.979,1.979,0,0,0-.886-1.173l.013,0-3.192-1.854,0,.013a1.884,1.884,0,0,0-1.942.05l-26.092,15.061a4.686,4.686,0,0,0-2.122,3.673l0,87.01a1.512,1.512,0,0,0,.571,1.343h0l3.283,1.9h0a1.521,1.521,0,0,0,1.446-.177l95.252-54.993A4.692,4.692,0,0,0,355.8,245.7Z" transform="translate(-253.118 -170.07)" fill="#27debf"/>
            <path id="Caminho_87" data-name="Caminho 87" d="M286.177,187.825a1.9,1.9,0,0,0-1.9.088l-26.091,15.058a4.512,4.512,0,0,0-1.5,1.587l-3.179-1.852a4.278,4.278,0,0,1,1.5-1.587L281.1,186.062a1.891,1.891,0,0,1,1.94-.05V186Z" transform="translate(-252.884 -160.577)" opacity="0.2"/>
            <path id="Caminho_88" data-name="Caminho 88" d="M341.455,172a1.581,1.581,0,0,0-1.391.205l-61.391,35.418a1.853,1.853,0,0,1-2.831-1.127l-.286-.775,61.33-35.368a1.876,1.876,0,0,1,.94-.284,1.113,1.113,0,0,1,.549.136h.01Z" transform="translate(-239.55 -170.069)" opacity="0.2"/>
            <path id="Caminho_89" data-name="Caminho 89" d="M354.558,172.736l.039,72.271a4.68,4.68,0,0,1-2.125,3.677l-95.5,55.132a1.251,1.251,0,0,1-1.876-1.083v-87.29a4.3,4.3,0,0,1,.619-2.085,4.487,4.487,0,0,1,1.5-1.584l26.092-15.064a1.918,1.918,0,0,1,1.9-.087l.055.032h-.016a1.973,1.973,0,0,1,.886,1.176l1.789,7.2.282.777a1.854,1.854,0,0,0,2.829,1.128l61.4-35.421a1.568,1.568,0,0,1,1.387-.2l.087.047.047.022.024.016A1.521,1.521,0,0,1,354.558,172.736Z" transform="translate(-251.921 -169.372)" fill="#27debf"/>
            <path id="Caminho_90" data-name="Caminho 90" d="M354.558,172.736l.039,72.271a4.68,4.68,0,0,1-2.125,3.677l-95.5,55.132a1.251,1.251,0,0,1-1.876-1.083v-87.29a4.3,4.3,0,0,1,.619-2.085,4.487,4.487,0,0,1,1.5-1.584l26.092-15.064a1.918,1.918,0,0,1,1.9-.087l.055.032h-.016a1.973,1.973,0,0,1,.886,1.176l1.789,7.2.282.777a1.854,1.854,0,0,0,2.829,1.128l61.4-35.421a1.568,1.568,0,0,1,1.387-.2l.087.047.047.022.024.016A1.521,1.521,0,0,1,354.558,172.736Z" transform="translate(-251.921 -169.372)" opacity="0.3"/>
            <path id="Caminho_91" data-name="Caminho 91" d="M278.008,201.207l0-11.4,6.781-3.923,0,11.413Z" transform="translate(-238.066 -160.509)" fill="#e0e0e0"/>
            <path id="Caminho_92" data-name="Caminho 92" d="M257.07,288.7a.441.441,0,0,1-.095-.032l-3.283-1.9a1.536,1.536,0,0,1-.573-1.348V198.41a4.324,4.324,0,0,1,.627-2.086l3.174,1.85v.008a4.3,4.3,0,0,0-.619,2.085v87.284A1.235,1.235,0,0,0,257.07,288.7Z" transform="translate(-253.119 -154.193)" opacity="0.5"/>
          </g>
          <g id="Grupo_64" data-name="Grupo 64" transform="translate(28.832 9.931)">
            <path id="Caminho_93" data-name="Caminho 93" d="M362.127,177.145a1.511,1.511,0,0,0-.581-1.342.714.714,0,0,0-.151-.087l-3.068-1.791,0,0-.006,0v0a1.493,1.493,0,0,0-1.491.151l-61.332,35.368-1.785-7.2a1.991,1.991,0,0,0-.886-1.173l.011,0-3.19-1.854,0,.013a1.887,1.887,0,0,0-1.943.05l-26.092,15.061A4.686,4.686,0,0,0,259.49,218l0,87.01a1.521,1.521,0,0,0,.57,1.345h0l3.285,1.9h0a1.517,1.517,0,0,0,1.444-.175l95.252-54.994a4.692,4.692,0,0,0,2.122-3.675Z" transform="translate(-259.49 -173.783)" fill="#27debf"/>
            <path id="Caminho_94" data-name="Caminho 94" d="M292.547,191.538a1.9,1.9,0,0,0-1.9.088l-26.091,15.058a4.5,4.5,0,0,0-1.5,1.587l-3.179-1.85a4.268,4.268,0,0,1,1.5-1.589l26.091-15.058a1.892,1.892,0,0,1,1.94-.05v-.01Z" transform="translate(-259.255 -164.29)" opacity="0.1"/>
            <path id="Caminho_95" data-name="Caminho 95" d="M347.826,175.716a1.585,1.585,0,0,0-1.391.205l-61.391,35.418a1.854,1.854,0,0,1-2.832-1.127l-.286-.773,61.33-35.369a1.88,1.88,0,0,1,.94-.284,1.113,1.113,0,0,1,.549.136h.01Z" transform="translate(-245.921 -173.782)" opacity="0.1"/>
            <path id="Caminho_96" data-name="Caminho 96" d="M360.929,176.451l.037,72.27a4.675,4.675,0,0,1-2.125,3.677l-95.494,55.132a1.251,1.251,0,0,1-1.876-1.083v-87.29a4.3,4.3,0,0,1,.618-2.085,4.53,4.53,0,0,1,1.5-1.584l26.094-15.064a1.914,1.914,0,0,1,1.9-.085l.055.03h-.016a1.985,1.985,0,0,1,.886,1.176l1.788,7.2.282.777a1.854,1.854,0,0,0,2.829,1.128l61.4-35.419a1.564,1.564,0,0,1,1.387-.2l.087.047.047.022.024.016A1.519,1.519,0,0,1,360.929,176.451Z" transform="translate(-258.292 -173.085)" fill="#27debf"/>
            <path id="Caminho_97" data-name="Caminho 97" d="M360.929,176.451l.037,72.27a4.675,4.675,0,0,1-2.125,3.677l-95.494,55.132a1.251,1.251,0,0,1-1.876-1.083v-87.29a4.3,4.3,0,0,1,.618-2.085,4.53,4.53,0,0,1,1.5-1.584l26.094-15.064a1.914,1.914,0,0,1,1.9-.085l.055.03h-.016a1.985,1.985,0,0,1,.886,1.176l1.788,7.2.282.777a1.854,1.854,0,0,0,2.829,1.128l61.4-35.419a1.564,1.564,0,0,1,1.387-.2l.087.047.047.022.024.016A1.519,1.519,0,0,1,360.929,176.451Z" transform="translate(-258.292 -173.085)" opacity="0.2"/>
            <path id="Caminho_98" data-name="Caminho 98" d="M293.506,199.651l0-11.4,6.781-3.923,0,11.413Z" transform="translate(-238.918 -167.409)" fill="#e6e6e6"/>
            <path id="Caminho_99" data-name="Caminho 99" d="M263.439,292.416a.523.523,0,0,1-.093-.03l-3.285-1.9a1.539,1.539,0,0,1-.571-1.348v-87.01a4.31,4.31,0,0,1,.626-2.085l3.174,1.849v.008a4.3,4.3,0,0,0-.62,2.085v87.284A1.237,1.237,0,0,0,263.439,292.416Z" transform="translate(-259.49 -157.905)" opacity="0.4"/>
          </g>
          <g id="Grupo_65" data-name="Grupo 65" transform="translate(39.055 15.89)">
            <path id="Caminho_100" data-name="Caminho 100" d="M368.5,180.858a1.512,1.512,0,0,0-.583-1.342.661.661,0,0,0-.151-.087l-3.067-1.791,0,0-.008,0v0a1.491,1.491,0,0,0-1.491.152l-61.33,35.366-1.786-7.2a1.985,1.985,0,0,0-.886-1.173l.013,0-3.192-1.854,0,.013a1.884,1.884,0,0,0-1.942.05l-26.094,15.061a4.689,4.689,0,0,0-2.122,3.673l0,87.01a1.52,1.52,0,0,0,.57,1.345h0l3.285,1.9h0a1.517,1.517,0,0,0,1.444-.175L366.416,256.8a4.692,4.692,0,0,0,2.122-3.675Z" transform="translate(-265.86 -177.497)" fill="#27debf"/>
            <path id="Caminho_101" data-name="Caminho 101" d="M298.917,195.251a1.9,1.9,0,0,0-1.9.088L270.926,210.4a4.513,4.513,0,0,0-1.5,1.587l-3.179-1.85a4.251,4.251,0,0,1,1.5-1.587l26.092-15.059a1.892,1.892,0,0,1,1.939-.05v-.01Z" transform="translate(-265.625 -168.003)" fill="#27debf"/>
            <path id="Caminho_102" data-name="Caminho 102" d="M354.2,179.429a1.586,1.586,0,0,0-1.391.205l-61.391,35.418a1.853,1.853,0,0,1-2.831-1.127l-.286-.774,61.328-35.369a1.885,1.885,0,0,1,.942-.284,1.12,1.12,0,0,1,.547.136h.011Z" transform="translate(-252.291 -177.496)" fill="#27debf"/>
            <path id="Caminho_103" data-name="Caminho 103" d="M367.3,180.164l.037,72.27a4.678,4.678,0,0,1-2.123,3.677l-95.5,55.132a1.25,1.25,0,0,1-1.876-1.083v-87.29a4.284,4.284,0,0,1,.619-2.085,4.5,4.5,0,0,1,1.5-1.584l26.092-15.064a1.914,1.914,0,0,1,1.9-.085l.055.03h-.016a1.99,1.99,0,0,1,.886,1.176l1.789,7.2.282.777a1.853,1.853,0,0,0,2.829,1.128l61.394-35.419a1.567,1.567,0,0,1,1.388-.2l.085.047.048.024.022.014A1.519,1.519,0,0,1,367.3,180.164Z" transform="translate(-264.662 -176.798)" fill="#27debf"/>
            <path id="Caminho_104" data-name="Caminho 104" d="M367.3,180.164l.037,72.27a4.678,4.678,0,0,1-2.123,3.677l-95.5,55.132a1.25,1.25,0,0,1-1.876-1.083v-87.29a4.284,4.284,0,0,1,.619-2.085,4.5,4.5,0,0,1,1.5-1.584l26.092-15.064a1.914,1.914,0,0,1,1.9-.085l.055.03h-.016a1.99,1.99,0,0,1,.886,1.176l1.789,7.2.282.777a1.853,1.853,0,0,0,2.829,1.128l61.394-35.419a1.567,1.567,0,0,1,1.388-.2l.085.047.048.024.022.014A1.519,1.519,0,0,1,367.3,180.164Z" transform="translate(-264.662 -176.798)" opacity="0.1"/>
            <path id="Caminho_105" data-name="Caminho 105" d="M309,198.095l0-11.4,6.78-3.923,0,11.413Z" transform="translate(-239.767 -174.309)" fill="#f0f0f0"/>
            <path id="Caminho_106" data-name="Caminho 106" d="M269.811,296.129a.5.5,0,0,1-.095-.031l-3.285-1.9a1.543,1.543,0,0,1-.571-1.348v-87.01a4.3,4.3,0,0,1,.628-2.085l3.174,1.849v.008a4.289,4.289,0,0,0-.619,2.086v87.282A1.235,1.235,0,0,0,269.811,296.129Z" transform="translate(-265.86 -161.618)" opacity="0.3"/>
          </g>
          <g id="Grupo_66" data-name="Grupo 66" transform="translate(49.277 21.849)">
            <path id="Caminho_107" data-name="Caminho 107" d="M374.868,184.571a1.512,1.512,0,0,0-.583-1.342.663.663,0,0,0-.151-.087l-3.067-1.791,0,0-.006,0v0a1.5,1.5,0,0,0-1.492.152l-61.33,35.366-1.785-7.2a1.987,1.987,0,0,0-.887-1.173l.013,0-3.192-1.854,0,.013a1.884,1.884,0,0,0-1.942.051l-26.092,15.059a4.692,4.692,0,0,0-2.122,3.675l0,87.01a1.515,1.515,0,0,0,.57,1.343h0l3.285,1.9h0a1.514,1.514,0,0,0,1.443-.175l95.253-54.994a4.689,4.689,0,0,0,2.122-3.673Z" transform="translate(-272.229 -181.21)" fill="#27debf"/>
            <path id="Caminho_108" data-name="Caminho 108" d="M305.288,198.964a1.9,1.9,0,0,0-1.9.088L277.3,214.111a4.486,4.486,0,0,0-1.5,1.587l-3.177-1.852a4.238,4.238,0,0,1,1.5-1.587L300.208,197.2a1.891,1.891,0,0,1,1.94-.048v-.011Z" transform="translate(-271.995 -171.716)" fill="#fff" opacity="0.5"/>
            <path id="Caminho_109" data-name="Caminho 109" d="M360.566,183.142a1.586,1.586,0,0,0-1.391.205l-61.391,35.418a1.853,1.853,0,0,1-2.831-1.127l-.286-.774L356,181.5a1.875,1.875,0,0,1,.94-.284,1.115,1.115,0,0,1,.549.138h.01Z" transform="translate(-258.661 -181.209)" fill="#fff" opacity="0.5"/>
            <path id="Caminho_110" data-name="Caminho 110" d="M373.669,183.877l.039,72.27a4.675,4.675,0,0,1-2.125,3.677l-95.5,55.132a1.251,1.251,0,0,1-1.876-1.083v-87.29a4.3,4.3,0,0,1,.619-2.085,4.5,4.5,0,0,1,1.5-1.582l26.092-15.066a1.914,1.914,0,0,1,1.9-.085l.055.03h-.014a1.982,1.982,0,0,1,.884,1.176l1.789,7.2.282.777a1.853,1.853,0,0,0,2.829,1.128l61.394-35.419a1.568,1.568,0,0,1,1.388-.2l.087.047.047.024.024.014A1.518,1.518,0,0,1,373.669,183.877Z" transform="translate(-271.032 -180.511)" fill="#27debf"/>
            <path id="Caminho_111" data-name="Caminho 111" d="M324.5,196.538l0-11.4,6.78-3.923,0,11.413Z" transform="translate(-240.617 -181.209)" fill="#fafafa"/>
            <path id="Caminho_112" data-name="Caminho 112" d="M276.181,299.842a.433.433,0,0,1-.095-.03l-3.283-1.9a1.54,1.54,0,0,1-.573-1.348v-87.01a4.313,4.313,0,0,1,.627-2.085l3.174,1.85v.006a4.311,4.311,0,0,0-.619,2.086v87.282A1.235,1.235,0,0,0,276.181,299.842Z" transform="translate(-272.23 -165.332)" opacity="0.2"/>
          </g>
          <g id="Grupo_68" data-name="Grupo 68" transform="translate(0 57.777)">
            <g id="Grupo_67" data-name="Grupo 67" transform="translate(0 2.436)">
              <path id="Caminho_113" data-name="Caminho 113" d="M301.737,239.858l-60.21-34.742,0,66.446L301.734,306.3Z" transform="translate(-241.523 -205.116)" fill="#37474f"/>
            </g>
            <path id="Caminho_114" data-name="Caminho 114" d="M245.735,203.6l-4.212,2.428,60.214,34.75,4.212-2.428Z" transform="translate(-241.523 -203.598)" fill="#455a64"/>
          </g>
          <g id="Grupo_69" data-name="Grupo 69" transform="translate(55.386 26.502)">
            <path id="Caminho_115" data-name="Caminho 115" d="M278.29,248.063,386.81,185.41l0,75.423L278.289,323.485Z" transform="translate(-274.674 -183.323)" fill="#455a64"/>
            <path id="Caminho_116" data-name="Caminho 116" d="M306.431,221.4l18.455-10.656c2.4-1.383,4.338-.751,4.338,1.411s-1.942,5.039-4.338,6.422L306.43,229.236c-2.4,1.383-4.338.751-4.338-1.411S304.035,222.788,306.431,221.4Z" transform="translate(-260.279 -168.441)" fill="#263238"/>
            <path id="Caminho_117" data-name="Caminho 117" d="M279.653,225.238l-3.616-2.087V298.57l3.615,2.089Z" transform="translate(-276.037 -160.498)" fill="#263238"/>
            <path id="Caminho_118" data-name="Caminho 118" d="M276.037,246.763l108.52-62.654,3.616,2.087L279.653,248.85Z" transform="translate(-276.037 -184.109)" fill="#37474f"/>
          </g>
        </g>
      </g>
    </g>
    <g id="Boxes" transform="translate(87.981 357.086)">
      <g id="Box" transform="translate(0 77.816)">
        <path id="Caminho_119" data-name="Caminho 119" d="M134.844,446.033V376.9l89.8-51.846v69.128Z" transform="translate(-19.933 -257.142)" fill="#27debf"/>
        <path id="Caminho_120" data-name="Caminho 120" d="M177.147,381.79,64.9,316.982V386.11l112.25,64.808Z" transform="translate(-62.236 -262.026)" fill="#27debf"/>
        <path id="Caminho_121" data-name="Caminho 121" d="M177.147,381.79,64.9,316.982V386.11l112.25,64.808Z" transform="translate(-62.236 -262.026)" opacity="0.15"/>
        <path id="Caminho_122" data-name="Caminho 122" d="M178.15,402.5,270.609,349.1,155.7,282.737l-92.46,53.406Z" transform="translate(-63.239 -282.737)" fill="#27debf"/>
        <path id="Caminho_123" data-name="Caminho 123" d="M178.15,402.5,270.609,349.1,155.7,282.737l-92.46,53.406Z" transform="translate(-63.239 -282.737)" fill="#fff" opacity="0.45"/>
        <path id="Caminho_124" data-name="Caminho 124" d="M134.844,377.493v17.282L227.3,341.393V324.087Z" transform="translate(-19.933 -257.729)" fill="#27debf"/>
        <path id="Caminho_125" data-name="Caminho 125" d="M134.844,387.675l89.8-51.846v3.8l-89.8,51.846Z" transform="translate(-19.933 -250.629)" opacity="0.2"/>
        <path id="Caminho_126" data-name="Caminho 126" d="M63.239,316.016,178.15,382.374v17.282L63.239,333.312Z" transform="translate(-63.239 -262.611)" fill="#27debf"/>
        <path id="Caminho_127" data-name="Caminho 127" d="M63.239,316.016,178.15,382.374v17.282L63.239,333.312Z" transform="translate(-63.239 -262.611)" opacity="0.2"/>
        <path id="Caminho_128" data-name="Caminho 128" d="M177.147,392.559,64.9,327.752v3.8l112.249,64.808Z" transform="translate(-62.236 -255.513)" opacity="0.2"/>
        <path id="Caminho_129" data-name="Caminho 129" d="M154.167,370.71,184.842,353c1.322-.762,2.394-.145,2.394,1.382v18.137a5.288,5.288,0,0,1-2.394,4.145l-30.675,17.709c-1.321.764-2.393.144-2.393-1.382V374.856A5.291,5.291,0,0,1,154.167,370.71Z" transform="translate(-9.694 -240.441)" fill="#455a64"/>
        <path id="Caminho_130" data-name="Caminho 130" d="M155.091,371.095l26.744-15.44c.881-.509,1.6-.1,1.6.921v13.6a3.527,3.527,0,0,1-1.6,2.763l-26.744,15.44c-.881.509-1.6.1-1.6-.921v-13.6A3.526,3.526,0,0,1,155.091,371.095Z" transform="translate(-8.653 -238.77)" fill="#f5f5f5"/>
        <g id="Grupo_74" data-name="Grupo 74" transform="translate(146.796 120.56)" opacity="0.5">
          <g id="Grupo_70" data-name="Grupo 70" transform="translate(0)">
            <path id="Caminho_131" data-name="Caminho 131" d="M155.1,373.219a.389.389,0,0,1-.194-.725l25.251-14.578a.389.389,0,0,1,.39.672L155.3,373.166A.373.373,0,0,1,155.1,373.219Z" transform="translate(-154.713 -357.863)" fill="#455a64"/>
          </g>
          <g id="Grupo_71" data-name="Grupo 71" transform="translate(0 3.339)">
            <path id="Caminho_132" data-name="Caminho 132" d="M155.1,375.3a.39.39,0,0,1-.194-.727L180.158,360a.389.389,0,1,1,.39.672L155.3,375.248A.389.389,0,0,1,155.1,375.3Z" transform="translate(-154.713 -359.943)" fill="#455a64"/>
          </g>
          <g id="Grupo_72" data-name="Grupo 72" transform="translate(0 6.678)">
            <path id="Caminho_133" data-name="Caminho 133" d="M155.1,377.38a.389.389,0,0,1-.194-.725l25.251-14.579a.389.389,0,0,1,.39.674L155.3,377.327A.388.388,0,0,1,155.1,377.38Z" transform="translate(-154.713 -362.024)" fill="#455a64"/>
          </g>
          <g id="Grupo_73" data-name="Grupo 73" transform="translate(0 10.017)">
            <path id="Caminho_134" data-name="Caminho 134" d="M155.1,379.46a.389.389,0,0,1-.194-.725l25.251-14.578a.389.389,0,0,1,.39.672L155.3,379.409A.387.387,0,0,1,155.1,379.46Z" transform="translate(-154.713 -364.104)" fill="#455a64"/>
          </g>
        </g>
      </g>
      <path id="Shadow-5" data-name="Shadow" d="M261.268,326.284l-84.957,49.05L68.907,313.29l-2.628,1.557,110.033,63.314,87.6-50.352Z" transform="translate(-61.4 -186.443)" opacity="0.1"/>
      <g id="Box-2" data-name="Box">
        <path id="Caminho_135" data-name="Caminho 135" d="M134.844,397.542V328.415l89.8-51.845V345.7Z" transform="translate(-19.933 -208.651)" fill="#27debf"/>
        <path id="Caminho_136" data-name="Caminho 136" d="M177.147,333.3,64.9,268.492V337.62l112.25,64.807Z" transform="translate(-62.236 -213.536)" fill="#27debf"/>
        <path id="Caminho_137" data-name="Caminho 137" d="M177.147,333.3,64.9,268.492V337.62l112.25,64.807Z" transform="translate(-62.236 -213.536)" opacity="0.15"/>
        <path id="Caminho_138" data-name="Caminho 138" d="M178.15,354.01l92.459-53.405L155.7,234.247l-92.46,53.406Z" transform="translate(-63.239 -234.247)" fill="#27debf"/>
        <path id="Caminho_139" data-name="Caminho 139" d="M178.15,354.01l92.459-53.405L155.7,234.247l-92.46,53.406Z" transform="translate(-63.239 -234.247)" fill="#fff" opacity="0.6"/>
        <path id="Caminho_140" data-name="Caminho 140" d="M134.844,329v17.282L227.3,292.9V275.6Z" transform="translate(-19.933 -209.239)" fill="#27debf"/>
        <path id="Caminho_141" data-name="Caminho 141" d="M134.844,339.184l89.8-51.846v3.8l-89.8,51.846Z" transform="translate(-19.933 -202.139)" opacity="0.2"/>
        <path id="Caminho_142" data-name="Caminho 142" d="M63.239,267.526,178.15,333.884v17.282L63.239,284.822Z" transform="translate(-63.239 -214.12)" fill="#27debf"/>
        <path id="Caminho_143" data-name="Caminho 143" d="M63.239,267.526,178.15,333.884v17.282L63.239,284.822Z" transform="translate(-63.239 -214.12)" opacity="0.2"/>
        <path id="Caminho_144" data-name="Caminho 144" d="M177.147,344.069,64.9,279.262v3.8l112.249,64.808Z" transform="translate(-62.236 -207.023)" opacity="0.2"/>
        <path id="Caminho_145" data-name="Caminho 145" d="M154.167,322.22l30.675-17.71c1.322-.762,2.394-.144,2.394,1.382v18.137a5.291,5.291,0,0,1-2.394,4.145l-30.675,17.709c-1.321.764-2.393.144-2.393-1.382V326.366A5.291,5.291,0,0,1,154.167,322.22Z" transform="translate(-9.694 -191.951)" fill="#455a64"/>
        <path id="Caminho_146" data-name="Caminho 146" d="M155.091,322.6l26.744-15.44c.881-.509,1.6-.1,1.6.921v13.6a3.526,3.526,0,0,1-1.6,2.763l-26.744,15.44c-.881.509-1.6.1-1.6-.921v-13.6A3.526,3.526,0,0,1,155.091,322.6Z" transform="translate(-8.653 -190.279)" fill="#f5f5f5"/>
        <g id="Grupo_79" data-name="Grupo 79" transform="translate(146.796 120.56)" opacity="0.5">
          <g id="Grupo_75" data-name="Grupo 75" transform="translate(0)">
            <path id="Caminho_147" data-name="Caminho 147" d="M155.1,324.73a.389.389,0,0,1-.194-.725l25.251-14.579a.389.389,0,0,1,.39.674L155.3,324.677A.388.388,0,0,1,155.1,324.73Z" transform="translate(-154.713 -309.372)" fill="#455a64"/>
          </g>
          <g id="Grupo_76" data-name="Grupo 76" transform="translate(0 3.339)">
            <path id="Caminho_148" data-name="Caminho 148" d="M155.1,326.809a.389.389,0,0,1-.194-.725l25.251-14.578a.389.389,0,0,1,.39.672L155.3,326.758A.387.387,0,0,1,155.1,326.809Z" transform="translate(-154.713 -311.453)" fill="#455a64"/>
          </g>
          <g id="Grupo_77" data-name="Grupo 77" transform="translate(0 6.678)">
            <path id="Caminho_149" data-name="Caminho 149" d="M155.1,328.89a.389.389,0,0,1-.194-.725l25.251-14.579a.389.389,0,0,1,.39.674L155.3,328.837A.388.388,0,0,1,155.1,328.89Z" transform="translate(-154.713 -313.534)" fill="#455a64"/>
          </g>
          <g id="Grupo_78" data-name="Grupo 78" transform="translate(0 10.016)">
            <path id="Caminho_150" data-name="Caminho 150" d="M155.1,330.97a.389.389,0,0,1-.194-.725l25.251-14.579a.389.389,0,0,1,.39.674L155.3,330.917A.373.373,0,0,1,155.1,330.97Z" transform="translate(-154.713 -315.614)" fill="#455a64"/>
          </g>
        </g>
      </g>
    </g>
  </g>
</svg>
