<svg id="Drawer" xmlns="http://www.w3.org/2000/svg" width="54.173" height="61.95" viewBox="0 0 54.173 61.95">
  <g id="Grupo_63" data-name="Grupo 63">
    <path id="Caminho_86" data-name="Caminho 86" d="M294.817,171.436a.613.613,0,0,0-.237-.545.268.268,0,0,0-.061-.035l-1.246-.728h0l0,0h0a.608.608,0,0,0-.606.061l-24.916,14.368-.726-2.925a.8.8,0,0,0-.36-.477l.005,0-1.3-.753v.005a.765.765,0,0,0-.789.02l-10.6,6.119a1.9,1.9,0,0,0-.862,1.492v35.348a.614.614,0,0,0,.232.546h0l1.334.774h0a.618.618,0,0,0,.587-.072l38.7-22.341a1.906,1.906,0,0,0,.862-1.493Z" transform="translate(-253.119 -170.07)" fill="#27debf"/>
    <path id="Caminho_87" data-name="Caminho 87" d="M266.78,186.6a.771.771,0,0,0-.773.036l-10.6,6.117a1.833,1.833,0,0,0-.609.645l-1.292-.752a1.738,1.738,0,0,1,.61-.645l10.6-6.117a.768.768,0,0,1,.788-.02v0Z" transform="translate(-253.254 -175.534)" opacity="0.2"/>
    <path id="Caminho_88" data-name="Caminho 88" d="M302.328,170.856a.642.642,0,0,0-.565.083l-24.941,14.389a.753.753,0,0,1-1.15-.458l-.116-.315,24.916-14.368a.762.762,0,0,1,.382-.115.452.452,0,0,1,.223.055h0Z" transform="translate(-260.928 -170.071)" opacity="0.2"/>
    <path id="Caminho_89" data-name="Caminho 89" d="M295.506,171.839l.016,29.361a1.9,1.9,0,0,1-.863,1.494l-38.8,22.4a.508.508,0,0,1-.762-.44V189.189a1.747,1.747,0,0,1,.252-.847,1.823,1.823,0,0,1,.608-.643l10.6-6.12a.779.779,0,0,1,.774-.035l.022.013h-.007a.8.8,0,0,1,.36.478l.727,2.924.115.316a.753.753,0,0,0,1.149.458l24.943-14.39a.637.637,0,0,1,.563-.082l.035.019.019.009.01.007A.618.618,0,0,1,295.506,171.839Z" transform="translate(-253.808 -170.472)" fill="#27debf"/>
    <path id="Caminho_90" data-name="Caminho 90" d="M295.506,171.839l.016,29.361a1.9,1.9,0,0,1-.863,1.494l-38.8,22.4a.508.508,0,0,1-.762-.44V189.189a1.747,1.747,0,0,1,.252-.847,1.823,1.823,0,0,1,.608-.643l10.6-6.12a.779.779,0,0,1,.774-.035l.022.013h-.007a.8.8,0,0,1,.36.478l.727,2.924.115.316a.753.753,0,0,0,1.149.458l24.943-14.39a.637.637,0,0,1,.563-.082l.035.019.019.009.01.007A.618.618,0,0,1,295.506,171.839Z" transform="translate(-253.808 -170.472)" opacity="0.3"/>
    <path id="Caminho_91" data-name="Caminho 91" d="M278.008,192.107l0-4.633,2.755-1.594v4.637Z" transform="translate(-261.782 -175.573)" fill="#e0e0e0"/>
    <path id="Caminho_92" data-name="Caminho 92" d="M254.724,233.854a.177.177,0,0,1-.038-.013l-1.334-.774a.624.624,0,0,1-.233-.548V197.172a1.757,1.757,0,0,1,.255-.848l1.29.752v0a1.747,1.747,0,0,0-.252.847v35.46A.5.5,0,0,0,254.724,233.854Z" transform="translate(-253.119 -179.208)" opacity="0.5"/>
  </g>
  <g id="Grupo_64" data-name="Grupo 64" transform="translate(4.154 2.421)">
    <path id="Caminho_93" data-name="Caminho 93" d="M301.187,175.149a.614.614,0,0,0-.236-.545.29.29,0,0,0-.061-.035l-1.247-.728h0l0,0h0a.607.607,0,0,0-.606.061l-24.917,14.368-.725-2.926a.809.809,0,0,0-.36-.477l0,0-1.3-.753v.005a.766.766,0,0,0-.79.02l-10.6,6.119a1.9,1.9,0,0,0-.862,1.492V227.1a.618.618,0,0,0,.231.546h0l1.335.773h0a.616.616,0,0,0,.587-.071L300.341,206a1.906,1.906,0,0,0,.862-1.493Z" transform="translate(-259.49 -173.783)" fill="#27debf"/>
    <path id="Caminho_94" data-name="Caminho 94" d="M273.15,190.317a.771.771,0,0,0-.772.036l-10.6,6.117a1.827,1.827,0,0,0-.609.645l-1.292-.752a1.734,1.734,0,0,1,.609-.645l10.6-6.117a.769.769,0,0,1,.788-.02v0Z" transform="translate(-259.625 -179.247)" opacity="0.1"/>
    <path id="Caminho_95" data-name="Caminho 95" d="M308.7,174.569a.644.644,0,0,0-.565.083l-24.941,14.389a.753.753,0,0,1-1.151-.458l-.116-.314L306.842,173.9a.764.764,0,0,1,.382-.115.452.452,0,0,1,.223.055h0Z" transform="translate(-267.299 -173.784)" opacity="0.1"/>
    <path id="Caminho_96" data-name="Caminho 96" d="M301.877,175.553l.015,29.36a1.9,1.9,0,0,1-.863,1.494l-38.8,22.4a.508.508,0,0,1-.762-.44V192.9a1.746,1.746,0,0,1,.251-.847,1.84,1.84,0,0,1,.608-.643l10.6-6.12a.778.778,0,0,1,.774-.035l.022.012h-.006a.807.807,0,0,1,.36.478l.726,2.924.115.316a.753.753,0,0,0,1.149.458l24.943-14.389a.635.635,0,0,1,.563-.083l.035.019.019.009.01.007A.617.617,0,0,1,301.877,175.553Z" transform="translate(-260.179 -174.186)" fill="#27debf"/>
    <path id="Caminho_97" data-name="Caminho 97" d="M301.877,175.553l.015,29.36a1.9,1.9,0,0,1-.863,1.494l-38.8,22.4a.508.508,0,0,1-.762-.44V192.9a1.746,1.746,0,0,1,.251-.847,1.84,1.84,0,0,1,.608-.643l10.6-6.12a.778.778,0,0,1,.774-.035l.022.012h-.006a.807.807,0,0,1,.36.478l.726,2.924.115.316a.753.753,0,0,0,1.149.458l24.943-14.389a.635.635,0,0,1,.563-.083l.035.019.019.009.01.007A.617.617,0,0,1,301.877,175.553Z" transform="translate(-260.179 -174.186)" opacity="0.2"/>
    <path id="Caminho_98" data-name="Caminho 98" d="M293.506,190.551l0-4.633,2.755-1.594v4.637Z" transform="translate(-271.329 -177.452)" fill="#e6e6e6"/>
    <path id="Caminho_99" data-name="Caminho 99" d="M261.094,237.567a.212.212,0,0,1-.038-.012l-1.335-.774a.625.625,0,0,1-.232-.548V200.885a1.751,1.751,0,0,1,.254-.847l1.29.751v0a1.747,1.747,0,0,0-.252.847V237.1A.5.5,0,0,0,261.094,237.567Z" transform="translate(-259.49 -182.921)" opacity="0.4"/>
  </g>
  <g id="Grupo_65" data-name="Grupo 65" transform="translate(8.307 4.842)">
    <path id="Caminho_100" data-name="Caminho 100" d="M307.558,178.862a.614.614,0,0,0-.237-.545.269.269,0,0,0-.061-.035l-1.246-.728h0l0,0h0a.606.606,0,0,0-.606.062l-24.916,14.368-.726-2.926a.807.807,0,0,0-.36-.477l.005,0-1.3-.753v.005a.765.765,0,0,0-.789.02l-10.6,6.119a1.9,1.9,0,0,0-.862,1.492v35.348a.618.618,0,0,0,.231.546h0l1.335.773h0a.616.616,0,0,0,.587-.071l38.7-22.342a1.906,1.906,0,0,0,.862-1.493Z" transform="translate(-265.86 -177.497)" fill="#27debf"/>
    <path id="Caminho_101" data-name="Caminho 101" d="M279.52,194.03a.771.771,0,0,0-.772.036l-10.6,6.117a1.834,1.834,0,0,0-.609.645l-1.292-.752a1.726,1.726,0,0,1,.609-.645l10.6-6.118a.769.769,0,0,1,.788-.02v0Z" transform="translate(-265.995 -182.96)" fill="#27debf"/>
    <path id="Caminho_102" data-name="Caminho 102" d="M315.069,178.282a.644.644,0,0,0-.565.083l-24.941,14.389a.753.753,0,0,1-1.15-.458l-.116-.314,24.915-14.369a.766.766,0,0,1,.383-.115.455.455,0,0,1,.222.055h0Z" transform="translate(-273.669 -177.497)" fill="#27debf"/>
    <path id="Caminho_103" data-name="Caminho 103" d="M308.247,179.266l.015,29.36a1.9,1.9,0,0,1-.863,1.494l-38.8,22.4a.508.508,0,0,1-.762-.44V196.615a1.74,1.74,0,0,1,.252-.847,1.829,1.829,0,0,1,.608-.643L279.3,189a.778.778,0,0,1,.774-.035l.022.012h-.007a.809.809,0,0,1,.36.478l.727,2.924.115.316a.753.753,0,0,0,1.149.458l24.942-14.389a.637.637,0,0,1,.564-.083l.035.019.02.01.009.006A.617.617,0,0,1,308.247,179.266Z" transform="translate(-266.549 -177.899)" fill="#27debf"/>
    <path id="Caminho_104" data-name="Caminho 104" d="M308.247,179.266l.015,29.36a1.9,1.9,0,0,1-.863,1.494l-38.8,22.4a.508.508,0,0,1-.762-.44V196.615a1.74,1.74,0,0,1,.252-.847,1.829,1.829,0,0,1,.608-.643L279.3,189a.778.778,0,0,1,.774-.035l.022.012h-.007a.809.809,0,0,1,.36.478l.727,2.924.115.316a.753.753,0,0,0,1.149.458l24.942-14.389a.637.637,0,0,1,.564-.083l.035.019.02.01.009.006A.617.617,0,0,1,308.247,179.266Z" transform="translate(-266.549 -177.899)" opacity="0.1"/>
    <path id="Caminho_105" data-name="Caminho 105" d="M309,188.994l0-4.633,2.755-1.594V187.4Z" transform="translate(-280.876 -179.331)" fill="#f0f0f0"/>
    <path id="Caminho_106" data-name="Caminho 106" d="M267.465,241.28a.2.2,0,0,1-.038-.012l-1.335-.774a.627.627,0,0,1-.232-.548V204.6a1.745,1.745,0,0,1,.255-.847l1.29.751v0a1.743,1.743,0,0,0-.252.848v35.459A.5.5,0,0,0,267.465,241.28Z" transform="translate(-265.86 -186.634)" opacity="0.3"/>
  </g>
  <g id="Grupo_66" data-name="Grupo 66" transform="translate(12.459 7.262)">
    <path id="Caminho_107" data-name="Caminho 107" d="M313.928,182.575a.614.614,0,0,0-.237-.545.269.269,0,0,0-.061-.035l-1.246-.728h0l0,0h0a.608.608,0,0,0-.606.062L286.858,195.7l-.725-2.926a.807.807,0,0,0-.361-.477l.005,0-1.3-.753v.005a.765.765,0,0,0-.789.021l-10.6,6.118a1.906,1.906,0,0,0-.862,1.493v35.348a.616.616,0,0,0,.231.546h0l1.335.773h0a.615.615,0,0,0,.586-.071l38.7-22.342a1.9,1.9,0,0,0,.862-1.492Z" transform="translate(-272.23 -181.21)" fill="#27debf"/>
    <path id="Caminho_108" data-name="Caminho 108" d="M285.891,197.743a.772.772,0,0,0-.773.036l-10.6,6.118a1.823,1.823,0,0,0-.609.645l-1.291-.752a1.722,1.722,0,0,1,.609-.645l10.6-6.118a.768.768,0,0,1,.788-.02v0Z" transform="translate(-272.365 -186.673)" fill="#fff" opacity="0.5"/>
    <path id="Caminho_109" data-name="Caminho 109" d="M321.439,182a.644.644,0,0,0-.565.083l-24.941,14.389a.753.753,0,0,1-1.15-.458l-.116-.314,24.916-14.369a.762.762,0,0,1,.382-.115.452.452,0,0,1,.223.056h0Z" transform="translate(-280.039 -181.21)" fill="#fff" opacity="0.5"/>
    <path id="Caminho_110" data-name="Caminho 110" d="M314.617,182.979l.016,29.36a1.9,1.9,0,0,1-.863,1.494l-38.8,22.4a.508.508,0,0,1-.762-.44V200.328a1.747,1.747,0,0,1,.252-.847,1.826,1.826,0,0,1,.608-.643l10.6-6.121a.778.778,0,0,1,.774-.035l.022.012h-.006a.8.8,0,0,1,.359.478l.727,2.924.115.316a.753.753,0,0,0,1.149.458l24.942-14.389a.637.637,0,0,1,.564-.083l.035.019.019.01.01.006A.617.617,0,0,1,314.617,182.979Z" transform="translate(-272.919 -181.612)" fill="#27debf"/>
    <path id="Caminho_111" data-name="Caminho 111" d="M324.5,187.438V182.8l2.755-1.594v4.637Z" transform="translate(-290.423 -181.21)" fill="#fafafa"/>
    <path id="Caminho_112" data-name="Caminho 112" d="M273.835,244.993a.176.176,0,0,1-.038-.012l-1.334-.774a.626.626,0,0,1-.233-.548V208.311a1.752,1.752,0,0,1,.255-.847l1.29.752v0a1.752,1.752,0,0,0-.252.848v35.459A.5.5,0,0,0,273.835,244.993Z" transform="translate(-272.23 -190.347)" opacity="0.2"/>
  </g>
</svg>
